<svg width="258" height="55" viewBox="0 0 258 55" fill="none" xmlns="http://www.w3.org/2000/svg">
<path d="M52.9375 44C52.6875 43.5 52.4844 42.6094 52.3281 41.3281C50.3125 43.4219 47.9062 44.4688 45.1094 44.4688C42.6094 44.4688 40.5547 43.7656 38.9453 42.3594C37.3516 40.9375 36.5547 39.1406 36.5547 36.9688C36.5547 34.3281 37.5547 32.2812 39.5547 30.8281C41.5703 29.3594 44.3984 28.625 48.0391 28.625H52.2578V26.6328C52.2578 25.1172 51.8047 23.9141 50.8984 23.0234C49.9922 22.1172 48.6562 21.6641 46.8906 21.6641C45.3438 21.6641 44.0469 22.0547 43 22.8359C41.9531 23.6172 41.4297 24.5625 41.4297 25.6719H37.0703C37.0703 24.4062 37.5156 23.1875 38.4062 22.0156C39.3125 20.8281 40.5312 19.8906 42.0625 19.2031C43.6094 18.5156 45.3047 18.1719 47.1484 18.1719C50.0703 18.1719 52.3594 18.9062 54.0156 20.375C55.6719 21.8281 56.5312 23.8359 56.5938 26.3984V38.0703C56.5938 40.3984 56.8906 42.25 57.4844 43.625V44H52.9375ZM45.7422 40.6953C47.1016 40.6953 48.3906 40.3438 49.6094 39.6406C50.8281 38.9375 51.7109 38.0234 52.2578 36.8984V31.6953H48.8594C43.5469 31.6953 40.8906 33.25 40.8906 36.3594C40.8906 37.7188 41.3438 38.7812 42.25 39.5469C43.1562 40.3125 44.3203 40.6953 45.7422 40.6953ZM84.8125 31.6016C84.8125 35.4609 83.9297 38.5703 82.1641 40.9297C80.3984 43.2891 78.0078 44.4688 74.9922 44.4688C71.9141 44.4688 69.4922 43.4922 67.7266 41.5391V53.75H63.3906V18.6406H67.3516L67.5625 21.4531C69.3281 19.2656 71.7812 18.1719 74.9219 18.1719C77.9688 18.1719 80.375 19.3203 82.1406 21.6172C83.9219 23.9141 84.8125 27.1094 84.8125 31.2031V31.6016ZM80.4766 31.1094C80.4766 28.25 79.8672 25.9922 78.6484 24.3359C77.4297 22.6797 75.7578 21.8516 73.6328 21.8516C71.0078 21.8516 69.0391 23.0156 67.7266 25.3438V37.4609C69.0234 39.7734 71.0078 40.9297 73.6797 40.9297C75.7578 40.9297 77.4062 40.1094 78.625 38.4688C79.8594 36.8125 80.4766 34.3594 80.4766 31.1094ZM96.2266 12.5V18.6406H100.961V21.9922H96.2266V37.7188C96.2266 38.7344 96.4375 39.5 96.8594 40.0156C97.2812 40.5156 98 40.7656 99.0156 40.7656C99.5156 40.7656 100.203 40.6719 101.078 40.4844V44C99.9375 44.3125 98.8281 44.4688 97.75 44.4688C95.8125 44.4688 94.3516 43.8828 93.3672 42.7109C92.3828 41.5391 91.8906 39.875 91.8906 37.7188V21.9922H87.2734V18.6406H91.8906V12.5H96.2266ZM110.758 44H106.422V18.6406H110.758V44ZM106.07 11.9141C106.07 11.2109 106.281 10.6172 106.703 10.1328C107.141 9.64844 107.781 9.40625 108.625 9.40625C109.469 9.40625 110.109 9.64844 110.547 10.1328C110.984 10.6172 111.203 11.2109 111.203 11.9141C111.203 12.6172 110.984 13.2031 110.547 13.6719C110.109 14.1406 109.469 14.375 108.625 14.375C107.781 14.375 107.141 14.1406 106.703 13.6719C106.281 13.2031 106.07 12.6172 106.07 11.9141Z" fill="white"/>
<path d="M52.9375 44L52.0431 44.4472L52.3195 45H52.9375V44ZM52.3281 41.3281L53.3208 41.2071L53.0662 39.1196L51.6077 40.6346L52.3281 41.3281ZM38.9453 42.3594L38.2796 43.1056L38.2873 43.1124L38.9453 42.3594ZM39.5547 30.8281L40.1425 31.6371L40.1436 31.6363L39.5547 30.8281ZM52.2578 28.625V29.625H53.2578V28.625H52.2578ZM50.8984 23.0234L50.1913 23.7306L50.1975 23.7367L50.8984 23.0234ZM41.4297 25.6719V26.6719H42.4297V25.6719H41.4297ZM37.0703 25.6719H36.0703V26.6719H37.0703V25.6719ZM38.4062 22.0156L37.6113 21.409L37.6101 21.4105L38.4062 22.0156ZM42.0625 19.2031L41.6564 18.2893L41.6529 18.2909L42.0625 19.2031ZM54.0156 20.375L53.3521 21.1232L53.3561 21.1267L54.0156 20.375ZM56.5938 26.3984H57.5938V26.3862L57.5935 26.3741L56.5938 26.3984ZM57.4844 43.625H58.4844V43.4183L58.4024 43.2286L57.4844 43.625ZM57.4844 44V45H58.4844V44H57.4844ZM52.2578 36.8984L53.1572 37.3356L53.2578 37.1286V36.8984H52.2578ZM52.2578 31.6953H53.2578V30.6953H52.2578V31.6953ZM53.8319 43.5528C53.6662 43.2213 53.4766 42.4845 53.3208 41.2071L51.3355 41.4492C51.4922 42.7342 51.7088 43.7787 52.0431 44.4472L53.8319 43.5528ZM51.6077 40.6346C49.7723 42.5411 47.6227 43.4688 45.1094 43.4688V45.4688C48.1898 45.4688 50.8527 44.3026 53.0485 42.0217L51.6077 40.6346ZM45.1094 43.4688C42.8079 43.4688 41.0002 42.8269 39.6033 41.6063L38.2873 43.1124C40.1092 44.7043 42.4108 45.4688 45.1094 45.4688V43.4688ZM39.611 41.6132C38.234 40.3847 37.5547 38.8611 37.5547 36.9688H35.5547C35.5547 39.4201 36.4691 41.4903 38.2796 43.1056L39.611 41.6132ZM37.5547 36.9688C37.5547 34.6227 38.4214 32.8876 40.1425 31.6371L38.9669 30.0191C36.6879 31.6749 35.5547 34.0336 35.5547 36.9688H37.5547ZM40.1436 31.6363C41.9257 30.3377 44.5169 29.625 48.0391 29.625V27.625C44.2799 27.625 41.2149 28.381 38.9658 30.0199L40.1436 31.6363ZM48.0391 29.625H52.2578V27.625H48.0391V29.625ZM53.2578 28.625V26.6328H51.2578V28.625H53.2578ZM53.2578 26.6328C53.2578 24.9046 52.7333 23.4245 51.5994 22.3102L50.1975 23.7367C50.8761 24.4036 51.2578 25.3298 51.2578 26.6328H53.2578ZM51.6055 22.3163C50.4501 21.1609 48.8192 20.6641 46.8906 20.6641V22.6641C48.4933 22.6641 49.5343 23.0735 50.1913 23.7305L51.6055 22.3163ZM46.8906 20.6641C45.1692 20.6641 43.6517 21.1018 42.4019 22.0345L43.5981 23.6374C44.442 23.0076 45.5183 22.6641 46.8906 22.6641V20.6641ZM42.4019 22.0345C41.1529 22.9666 40.4297 24.1885 40.4297 25.6719H42.4297C42.4297 24.9365 42.7533 24.2678 43.5981 23.6374L42.4019 22.0345ZM41.4297 24.6719H37.0703V26.6719H41.4297V24.6719ZM38.0703 25.6719C38.0703 24.6592 38.4216 23.6481 39.2024 22.6207L37.6101 21.4105C36.6096 22.7269 36.0703 24.1533 36.0703 25.6719H38.0703ZM39.2012 22.6223C39.9945 21.5828 41.0737 20.7433 42.4721 20.1154L41.6529 18.2909C39.9888 19.038 38.6305 20.0734 37.6113 21.409L39.2012 22.6223ZM42.4686 20.1169C43.8766 19.4912 45.432 19.1719 47.1484 19.1719V17.1719C45.1774 17.1719 43.3421 17.5401 41.6564 18.2893L42.4686 20.1169ZM47.1484 19.1719C49.9055 19.1719 51.9308 19.8627 53.3521 21.1232L54.6791 19.6268C52.788 17.9498 50.2351 17.1719 47.1484 17.1719V19.1719ZM53.3561 21.1267C54.7675 22.365 55.5371 24.0897 55.594 26.4228L57.5935 26.3741C57.5254 23.5822 56.5762 21.2913 54.6751 19.6233L53.3561 21.1267ZM55.5938 26.3984V38.0703H57.5938V26.3984H55.5938ZM55.5938 38.0703C55.5938 40.4672 55.8969 42.4713 56.5663 44.0214L58.4024 43.2286C57.8843 42.0287 57.5938 40.3297 57.5938 38.0703H55.5938ZM56.4844 43.625V44H58.4844V43.625H56.4844ZM57.4844 43H52.9375V45H57.4844V43ZM45.7422 41.6953C47.2833 41.6953 48.744 41.2944 50.1091 40.5068L49.1097 38.7744C48.0373 39.3931 46.9198 39.6953 45.7422 39.6953V41.6953ZM50.1091 40.5068C51.4785 39.7168 52.5123 38.6623 53.1572 37.3356L51.3584 36.4612C50.9096 37.3846 50.1777 38.1582 49.1097 38.7744L50.1091 40.5068ZM53.2578 36.8984V31.6953H51.2578V36.8984H53.2578ZM52.2578 30.6953H48.8594V32.6953H52.2578V30.6953ZM48.8594 30.6953C46.1383 30.6953 43.9335 31.0877 42.3777 31.9983C40.7392 32.9573 39.8906 34.4541 39.8906 36.3594H41.8906C41.8906 35.1553 42.3702 34.3201 43.3879 33.7244C44.4884 33.0803 46.2679 32.6953 48.8594 32.6953V30.6953ZM39.8906 36.3594C39.8906 37.9652 40.4393 39.3262 41.6046 40.3108L42.8954 38.783C42.2482 38.2363 41.8906 37.4723 41.8906 36.3594H39.8906ZM41.6046 40.3108C42.7256 41.2577 44.1331 41.6953 45.7422 41.6953V39.6953C44.5076 39.6953 43.5869 39.3673 42.8954 38.783L41.6046 40.3108ZM67.7266 41.5391L68.4684 40.8685L66.7266 38.9417V41.5391H67.7266ZM67.7266 53.75V54.75H68.7266V53.75H67.7266ZM63.3906 53.75H62.3906V54.75H63.3906V53.75ZM63.3906 18.6406V17.6406H62.3906V18.6406H63.3906ZM67.3516 18.6406L68.3488 18.5658L68.2794 17.6406H67.3516V18.6406ZM67.5625 21.4531L66.5653 21.5279L66.7542 24.0467L68.3407 22.0812L67.5625 21.4531ZM82.1406 21.6172L81.3478 22.2266L81.3504 22.23L82.1406 21.6172ZM67.7266 25.3438L66.8555 24.8527L66.7266 25.0813V25.3438H67.7266ZM67.7266 37.4609H66.7266V37.7222L66.8544 37.9501L67.7266 37.4609ZM78.625 38.4688L77.8232 37.8712L77.8223 37.8724L78.625 38.4688ZM83.8125 31.6016C83.8125 35.3118 82.9646 38.1909 81.3634 40.3305L82.9647 41.5288C84.8948 38.9497 85.8125 35.6101 85.8125 31.6016H83.8125ZM81.3634 40.3305C79.7917 42.4308 77.7013 43.4688 74.9922 43.4688V45.4688C78.3143 45.4688 81.0051 44.1474 82.9647 41.5288L81.3634 40.3305ZM74.9922 43.4688C72.1443 43.4688 70.0119 42.5759 68.4684 40.8685L66.9847 42.2097C68.9725 44.4085 71.6838 45.4688 74.9922 45.4688V43.4688ZM66.7266 41.5391V53.75H68.7266V41.5391H66.7266ZM67.7266 52.75H63.3906V54.75H67.7266V52.75ZM64.3906 53.75V18.6406H62.3906V53.75H64.3906ZM63.3906 19.6406H67.3516V17.6406H63.3906V19.6406ZM66.3544 18.7154L66.5653 21.5279L68.5597 21.3783L68.3488 18.5658L66.3544 18.7154ZM68.3407 22.0812C69.8926 20.1585 72.0433 19.1719 74.9219 19.1719V17.1719C71.5192 17.1719 68.7637 18.3728 66.7843 20.825L68.3407 22.0812ZM74.9219 19.1719C77.6768 19.1719 79.7826 20.1904 81.3478 22.2266L82.9334 21.0077C80.9674 18.4502 78.2607 17.1719 74.9219 17.1719V19.1719ZM81.3504 22.23C82.9499 24.2925 83.8125 27.2427 83.8125 31.2031H85.8125C85.8125 26.9761 84.8939 23.5357 82.9308 21.0044L81.3504 22.23ZM83.8125 31.2031V31.6016H85.8125V31.2031H83.8125ZM81.4766 31.1094C81.4766 28.118 80.8399 25.6269 79.4539 23.7433L77.843 24.9286C78.8945 26.3575 79.4766 28.382 79.4766 31.1094H81.4766ZM79.4539 23.7433C78.0394 21.821 76.0633 20.8516 73.6328 20.8516V22.8516C75.4524 22.8516 76.82 23.5384 77.843 24.9286L79.4539 23.7433ZM73.6328 20.8516C70.6388 20.8516 68.3412 22.2172 66.8555 24.8527L68.5977 25.8348C69.7369 23.814 71.3768 22.8516 73.6328 22.8516V20.8516ZM66.7266 25.3438V37.4609H68.7266V25.3438H66.7266ZM66.8544 37.9501C67.5764 39.2376 68.5152 40.2455 69.6841 40.9265C70.8525 41.6073 72.1961 41.9297 73.6797 41.9297V39.9297C72.4914 39.9297 71.5069 39.6739 70.6909 39.1985C69.8754 38.7233 69.1736 37.9968 68.5988 36.9718L66.8544 37.9501ZM73.6797 41.9297C76.0679 41.9297 78.0166 40.9647 79.4277 39.0651L77.8223 37.8724C76.7959 39.2541 75.4477 39.9297 73.6797 39.9297V41.9297ZM79.4268 39.0663C80.8448 37.1636 81.4766 34.4597 81.4766 31.1094H79.4766C79.4766 34.2591 78.8739 36.4614 77.8232 37.8712L79.4268 39.0663ZM96.2266 12.5H97.2266V11.5H96.2266V12.5ZM96.2266 18.6406H95.2266V19.6406H96.2266V18.6406ZM100.961 18.6406H101.961V17.6406H100.961V18.6406ZM100.961 21.9922V22.9922H101.961V21.9922H100.961ZM96.2266 21.9922V20.9922H95.2266V21.9922H96.2266ZM96.8594 40.0156L96.0854 40.6489L96.0902 40.6547L96.0951 40.6605L96.8594 40.0156ZM101.078 40.4844H102.078V39.2474L100.869 39.5066L101.078 40.4844ZM101.078 44L101.342 44.9645L102.078 44.7629V44H101.078ZM91.8906 21.9922H92.8906V20.9922H91.8906V21.9922ZM87.2734 21.9922H86.2734V22.9922H87.2734V21.9922ZM87.2734 18.6406V17.6406H86.2734V18.6406H87.2734ZM91.8906 18.6406V19.6406H92.8906V18.6406H91.8906ZM91.8906 12.5V11.5H90.8906V12.5H91.8906ZM95.2266 12.5V18.6406H97.2266V12.5H95.2266ZM96.2266 19.6406H100.961V17.6406H96.2266V19.6406ZM99.9609 18.6406V21.9922H101.961V18.6406H99.9609ZM100.961 20.9922H96.2266V22.9922H100.961V20.9922ZM95.2266 21.9922V37.7188H97.2266V21.9922H95.2266ZM95.2266 37.7188C95.2266 38.8497 95.4579 39.8819 96.0854 40.6489L97.6333 39.3824C97.4171 39.1181 97.2266 38.6191 97.2266 37.7188H95.2266ZM96.0951 40.6605C96.7916 41.486 97.8684 41.7656 99.0156 41.7656V39.7656C98.1316 39.7656 97.7709 39.5453 97.6237 39.3708L96.0951 40.6605ZM99.0156 41.7656C99.6206 41.7656 100.389 41.6548 101.288 41.4622L100.869 39.5066C100.018 39.6889 99.4107 39.7656 99.0156 39.7656V41.7656ZM100.078 40.4844V44H102.078V40.4844H100.078ZM100.814 43.0355C99.7511 43.3267 98.7307 43.4688 97.75 43.4688V45.4688C98.9256 45.4688 100.124 45.2983 101.342 44.9645L100.814 43.0355ZM97.75 43.4688C96.0229 43.4688 94.8786 42.9555 94.1329 42.0677L92.6015 43.3541C93.8245 44.8101 95.6021 45.4688 97.75 45.4688V43.4688ZM94.1329 42.0677C93.3514 41.1374 92.8906 39.7347 92.8906 37.7188H90.8906C90.8906 40.0153 91.4142 41.9407 92.6015 43.3541L94.1329 42.0677ZM92.8906 37.7188V21.9922H90.8906V37.7188H92.8906ZM91.8906 20.9922H87.2734V22.9922H91.8906V20.9922ZM88.2734 21.9922V18.6406H86.2734V21.9922H88.2734ZM87.2734 19.6406H91.8906V17.6406H87.2734V19.6406ZM92.8906 18.6406V12.5H90.8906V18.6406H92.8906ZM91.8906 13.5H96.2266V11.5H91.8906V13.5ZM110.758 44V45H111.758V44H110.758ZM106.422 44H105.422V45H106.422V44ZM106.422 18.6406V17.6406H105.422V18.6406H106.422ZM110.758 18.6406H111.758V17.6406H110.758V18.6406ZM106.703 10.1328L105.961 9.46253L105.955 9.46922L105.949 9.47603L106.703 10.1328ZM106.703 13.6719L105.96 14.3408L105.966 14.3476L105.972 14.3542L106.703 13.6719ZM110.758 43H106.422V45H110.758V43ZM107.422 44V18.6406H105.422V44H107.422ZM106.422 19.6406H110.758V17.6406H106.422V19.6406ZM109.758 18.6406V44H111.758V18.6406H109.758ZM107.07 11.9141C107.07 11.4277 107.209 11.0742 107.457 10.7896L105.949 9.47603C105.353 10.1602 105.07 10.9941 105.07 11.9141H107.07ZM107.445 10.8031C107.641 10.586 107.976 10.4062 108.625 10.4062V8.40625C107.586 8.40625 106.64 8.71083 105.961 9.46253L107.445 10.8031ZM108.625 10.4062C109.274 10.4062 109.609 10.586 109.805 10.8031L111.289 9.46253C110.61 8.71083 109.664 8.40625 108.625 8.40625V10.4062ZM109.805 10.8031C110.063 11.0888 110.203 11.4378 110.203 11.9141H112.203C112.203 10.9841 111.906 10.1456 111.289 9.46253L109.805 10.8031ZM110.203 11.9141C110.203 12.3905 110.063 12.7246 109.816 12.9896L111.278 14.3542C111.906 13.6817 112.203 12.8439 112.203 11.9141H110.203ZM109.816 12.9896C109.622 13.1971 109.283 13.375 108.625 13.375V15.375C109.654 15.375 110.597 15.0842 111.278 14.3542L109.816 12.9896ZM108.625 13.375C107.967 13.375 107.628 13.1971 107.434 12.9896L105.972 14.3542C106.653 15.0842 107.596 15.375 108.625 15.375V13.375ZM107.446 13.0029C107.209 12.7393 107.07 12.4007 107.07 11.9141H105.07C105.07 12.8336 105.353 13.6669 105.96 14.3408L107.446 13.0029Z" fill="black"/>
<path d="M30.1875 44H25.6641V28.2266H8.46094V44H3.96094V9.875H8.46094V24.5469H25.6641V9.875H30.1875V44Z" fill="#FF8C05"/>
<path d="M157.805 44.4688C154.367 44.4688 151.57 43.3438 149.414 41.0938C147.258 38.8281 146.18 35.8047 146.18 32.0234V31.2266C146.18 28.7109 146.656 26.4688 147.609 24.5C148.578 22.5156 149.922 20.9688 151.641 19.8594C153.375 18.7344 155.25 18.1719 157.266 18.1719C160.562 18.1719 163.125 19.2578 164.953 21.4297C166.781 23.6016 167.695 26.7109 167.695 30.7578V32.5625H150.516C150.578 35.0625 151.305 37.0859 152.695 38.6328C154.102 40.1641 155.883 40.9297 158.039 40.9297C159.57 40.9297 160.867 40.6172 161.93 39.9922C162.992 39.3672 163.922 38.5391 164.719 37.5078L167.367 39.5703C165.242 42.8359 162.055 44.4688 157.805 44.4688ZM157.266 21.7344C155.516 21.7344 154.047 22.375 152.859 23.6562C151.672 24.9219 150.938 26.7031 150.656 29H163.359V28.6719C163.234 26.4688 162.641 24.7656 161.578 23.5625C160.516 22.3438 159.078 21.7344 157.266 21.7344ZM176.836 18.6406L176.977 21.8281C178.914 19.3906 181.445 18.1719 184.57 18.1719C189.93 18.1719 192.633 21.1953 192.68 27.2422V44H188.344V27.2188C188.328 25.3906 187.906 24.0391 187.078 23.1641C186.266 22.2891 184.992 21.8516 183.258 21.8516C181.852 21.8516 180.617 22.2266 179.555 22.9766C178.492 23.7266 177.664 24.7109 177.07 25.9297V44H172.734V18.6406H176.836ZM205.102 12.5V18.6406H209.836V21.9922H205.102V37.7188C205.102 38.7344 205.312 39.5 205.734 40.0156C206.156 40.5156 206.875 40.7656 207.891 40.7656C208.391 40.7656 209.078 40.6719 209.953 40.4844V44C208.812 44.3125 207.703 44.4688 206.625 44.4688C204.688 44.4688 203.227 43.8828 202.242 42.7109C201.258 41.5391 200.766 39.875 200.766 37.7188V21.9922H196.148V18.6406H200.766V12.5H205.102ZM225.445 44.4688C222.008 44.4688 219.211 43.3438 217.055 41.0938C214.898 38.8281 213.82 35.8047 213.82 32.0234V31.2266C213.82 28.7109 214.297 26.4688 215.25 24.5C216.219 22.5156 217.562 20.9688 219.281 19.8594C221.016 18.7344 222.891 18.1719 224.906 18.1719C228.203 18.1719 230.766 19.2578 232.594 21.4297C234.422 23.6016 235.336 26.7109 235.336 30.7578V32.5625H218.156C218.219 35.0625 218.945 37.0859 220.336 38.6328C221.742 40.1641 223.523 40.9297 225.68 40.9297C227.211 40.9297 228.508 40.6172 229.57 39.9922C230.633 39.3672 231.562 38.5391 232.359 37.5078L235.008 39.5703C232.883 42.8359 229.695 44.4688 225.445 44.4688ZM224.906 21.7344C223.156 21.7344 221.688 22.375 220.5 23.6562C219.312 24.9219 218.578 26.7031 218.297 29H231V28.6719C230.875 26.4688 230.281 24.7656 229.219 23.5625C228.156 22.3438 226.719 21.7344 224.906 21.7344ZM252.633 22.5312C251.977 22.4219 251.266 22.3672 250.5 22.3672C247.656 22.3672 245.727 23.5781 244.711 26V44H240.375V18.6406H244.594L244.664 21.5703C246.086 19.3047 248.102 18.1719 250.711 18.1719C251.555 18.1719 252.195 18.2812 252.633 18.5V22.5312Z" fill="white"/>
<path d="M149.414 41.0938L148.69 41.7832L148.692 41.7857L149.414 41.0938ZM147.609 24.5L146.711 24.0613L146.709 24.0643L147.609 24.5ZM151.641 19.8594L152.183 20.6996L152.185 20.6983L151.641 19.8594ZM167.695 32.5625V33.5625H168.695V32.5625H167.695ZM150.516 32.5625V31.5625H149.49L149.516 32.5875L150.516 32.5625ZM152.695 38.6328L151.952 39.3014L151.959 39.3092L152.695 38.6328ZM164.719 37.5078L165.333 36.7188L164.541 36.1021L163.927 36.8964L164.719 37.5078ZM167.367 39.5703L168.205 40.1157L168.706 39.3458L167.982 38.7813L167.367 39.5703ZM152.859 23.6562L153.589 24.3405L153.593 24.336L152.859 23.6562ZM150.656 29L149.664 28.8785L149.526 30H150.656V29ZM163.359 29V30H164.359V29H163.359ZM163.359 28.6719H164.359V28.6435L164.358 28.6152L163.359 28.6719ZM161.578 23.5625L160.824 24.2196L160.829 24.2244L161.578 23.5625ZM157.805 43.4688C154.609 43.4688 152.083 42.4337 150.136 40.4018L148.692 41.7857C151.057 44.2538 154.126 45.4688 157.805 45.4688V43.4688ZM150.138 40.4043C148.195 38.3621 147.18 35.6049 147.18 32.0234H145.18C145.18 36.0045 146.321 39.2942 148.69 41.7832L150.138 40.4043ZM147.18 32.0234V31.2266H145.18V32.0234H147.18ZM147.18 31.2266C147.18 28.8392 147.631 26.7496 148.509 24.9357L146.709 24.0643C145.681 26.1879 145.18 28.5827 145.18 31.2266H147.18ZM148.508 24.9387C149.403 23.1046 150.629 21.7022 152.183 20.6996L151.098 19.0192C149.214 20.2353 147.753 21.9266 146.711 24.0613L148.508 24.9387ZM152.185 20.6983C153.762 19.6756 155.448 19.1719 157.266 19.1719V17.1719C155.052 17.1719 152.988 17.7932 151.096 19.0204L152.185 20.6983ZM157.266 19.1719C160.32 19.1719 162.582 20.1651 164.188 22.0737L165.718 20.7857C163.668 18.3505 160.805 17.1719 157.266 17.1719V19.1719ZM164.188 22.0737C165.811 24.002 166.695 26.848 166.695 30.7578H168.695C168.695 26.5739 167.751 23.2011 165.718 20.7857L164.188 22.0737ZM166.695 30.7578V32.5625H168.695V30.7578H166.695ZM167.695 31.5625H150.516V33.5625H167.695V31.5625ZM149.516 32.5875C149.583 35.2753 150.371 37.5431 151.952 39.3014L153.439 37.9643C152.238 36.6287 151.573 34.8497 151.515 32.5375L149.516 32.5875ZM151.959 39.3092C153.562 41.0552 155.615 41.9297 158.039 41.9297V39.9297C156.151 39.9297 154.641 39.2729 153.432 37.9564L151.959 39.3092ZM158.039 41.9297C159.706 41.9297 161.187 41.589 162.437 40.8541L161.423 39.1303C160.547 39.6454 159.435 39.9297 158.039 39.9297V41.9297ZM162.437 40.8541C163.615 40.1609 164.64 39.2455 165.51 38.1193L163.927 36.8964C163.204 37.8326 162.369 38.5735 161.423 39.1303L162.437 40.8541ZM164.104 38.2968L166.753 40.3593L167.982 38.7813L165.333 36.7188L164.104 38.2968ZM166.529 39.0249C164.608 41.9777 161.753 43.4688 157.805 43.4688V45.4688C162.356 45.4688 165.877 43.6942 168.205 40.1157L166.529 39.0249ZM157.266 20.7344C155.238 20.7344 153.503 21.4906 152.126 22.9765L153.593 24.336C154.591 23.2594 155.793 22.7344 157.266 22.7344V20.7344ZM152.13 22.972C150.756 24.4368 149.962 26.4404 149.664 28.8785L151.649 29.1215C151.913 26.9659 152.588 25.407 153.589 24.3405L152.13 22.972ZM150.656 30H163.359V28H150.656V30ZM164.359 29V28.6719H162.359V29H164.359ZM164.358 28.6152C164.225 26.2711 163.586 24.325 162.328 22.9006L160.829 24.2244C161.696 25.2063 162.244 26.6664 162.361 28.7285L164.358 28.6152ZM162.332 22.9054C161.055 21.441 159.328 20.7344 157.266 20.7344V22.7344C158.828 22.7344 159.976 23.2465 160.824 24.2196L162.332 22.9054ZM176.836 18.6406L177.835 18.5966L177.793 17.6406H176.836V18.6406ZM176.977 21.8281L175.978 21.8722L176.095 24.5438L177.759 22.4504L176.977 21.8281ZM192.68 27.2422L193.68 27.2422L193.68 27.2344L192.68 27.2422ZM192.68 44V45H193.68V44H192.68ZM188.344 44H187.344V45H188.344V44ZM188.344 27.2188H189.344L189.344 27.2102L188.344 27.2188ZM187.078 23.1641L186.345 23.8445L186.352 23.8514L187.078 23.1641ZM177.07 25.9297L176.171 25.4917L176.07 25.6991V25.9297H177.07ZM177.07 44V45H178.07V44H177.07ZM172.734 44H171.734V45H172.734V44ZM172.734 18.6406V17.6406H171.734V18.6406H172.734ZM175.837 18.6847L175.978 21.8722L177.976 21.7841L177.835 18.5966L175.837 18.6847ZM177.759 22.4504C179.506 20.2525 181.749 19.1719 184.57 19.1719V17.1719C181.142 17.1719 178.322 18.5287 176.194 21.2059L177.759 22.4504ZM184.57 19.1719C187.062 19.1719 188.766 19.8691 189.872 21.106C190.998 22.3653 191.657 24.3536 191.68 27.2499L193.68 27.2344C193.655 24.0839 192.94 21.5371 191.363 19.7729C189.765 17.9864 187.438 17.1719 184.57 17.1719V19.1719ZM191.68 27.2422V44H193.68V27.2422H191.68ZM192.68 43H188.344V45H192.68V43ZM189.344 44V27.2188H187.344V44H189.344ZM189.344 27.2102C189.327 25.2566 188.877 23.6105 187.804 22.4767L186.352 23.8514C186.935 24.4676 187.329 25.5246 187.344 27.2273L189.344 27.2102ZM187.811 22.4836C186.737 21.3272 185.143 20.8516 183.258 20.8516V22.8516C184.842 22.8516 185.794 23.2509 186.345 23.8445L187.811 22.4836ZM183.258 20.8516C181.663 20.8516 180.223 21.2807 178.978 22.1596L180.131 23.7935C181.011 23.1724 182.04 22.8516 183.258 22.8516V20.8516ZM178.978 22.1596C177.772 23.0109 176.836 24.1282 176.171 25.4917L177.969 26.3677C178.493 25.2937 179.212 24.4422 180.131 23.7935L178.978 22.1596ZM176.07 25.9297V44H178.07V25.9297H176.07ZM177.07 43H172.734V45H177.07V43ZM173.734 44V18.6406H171.734V44H173.734ZM172.734 19.6406H176.836V17.6406H172.734V19.6406ZM205.102 12.5H206.102V11.5H205.102V12.5ZM205.102 18.6406H204.102V19.6406H205.102V18.6406ZM209.836 18.6406H210.836V17.6406H209.836V18.6406ZM209.836 21.9922V22.9922H210.836V21.9922H209.836ZM205.102 21.9922V20.9922H204.102V21.9922H205.102ZM205.734 40.0156L204.96 40.6489L204.965 40.6547L204.97 40.6605L205.734 40.0156ZM209.953 40.4844H210.953V39.2474L209.744 39.5066L209.953 40.4844ZM209.953 44L210.217 44.9645L210.953 44.7629V44H209.953ZM200.766 21.9922H201.766V20.9922H200.766V21.9922ZM196.148 21.9922H195.148V22.9922H196.148V21.9922ZM196.148 18.6406V17.6406H195.148V18.6406H196.148ZM200.766 18.6406V19.6406H201.766V18.6406H200.766ZM200.766 12.5V11.5H199.766V12.5H200.766ZM204.102 12.5V18.6406H206.102V12.5H204.102ZM205.102 19.6406H209.836V17.6406H205.102V19.6406ZM208.836 18.6406V21.9922H210.836V18.6406H208.836ZM209.836 20.9922H205.102V22.9922H209.836V20.9922ZM204.102 21.9922V37.7188H206.102V21.9922H204.102ZM204.102 37.7188C204.102 38.8497 204.333 39.8819 204.96 40.6489L206.508 39.3824C206.292 39.1181 206.102 38.6191 206.102 37.7188H204.102ZM204.97 40.6605C205.667 41.486 206.743 41.7656 207.891 41.7656V39.7656C207.007 39.7656 206.646 39.5453 206.499 39.3708L204.97 40.6605ZM207.891 41.7656C208.496 41.7656 209.264 41.6548 210.163 41.4622L209.744 39.5066C208.893 39.6889 208.286 39.7656 207.891 39.7656V41.7656ZM208.953 40.4844V44H210.953V40.4844H208.953ZM209.689 43.0355C208.626 43.3267 207.606 43.4688 206.625 43.4688V45.4688C207.801 45.4688 208.999 45.2983 210.217 44.9645L209.689 43.0355ZM206.625 43.4688C204.898 43.4688 203.754 42.9555 203.008 42.0677L201.476 43.3541C202.7 44.8101 204.477 45.4688 206.625 45.4688V43.4688ZM203.008 42.0677C202.226 41.1374 201.766 39.7347 201.766 37.7188H199.766C199.766 40.0153 200.289 41.9407 201.476 43.3541L203.008 42.0677ZM201.766 37.7188V21.9922H199.766V37.7188H201.766ZM200.766 20.9922H196.148V22.9922H200.766V20.9922ZM197.148 21.9922V18.6406H195.148V21.9922H197.148ZM196.148 19.6406H200.766V17.6406H196.148V19.6406ZM201.766 18.6406V12.5H199.766V18.6406H201.766ZM200.766 13.5H205.102V11.5H200.766V13.5ZM217.055 41.0938L216.33 41.7832L216.333 41.7857L217.055 41.0938ZM215.25 24.5L214.351 24.0613L214.35 24.0643L215.25 24.5ZM219.281 19.8594L219.824 20.6996L219.825 20.6983L219.281 19.8594ZM235.336 32.5625V33.5625H236.336V32.5625H235.336ZM218.156 32.5625V31.5625H217.131L217.157 32.5875L218.156 32.5625ZM220.336 38.6328L219.592 39.3014L219.599 39.3092L220.336 38.6328ZM232.359 37.5078L232.974 36.7188L232.182 36.1021L231.568 36.8964L232.359 37.5078ZM235.008 39.5703L235.846 40.1157L236.347 39.3458L235.622 38.7813L235.008 39.5703ZM220.5 23.6562L221.229 24.3405L221.233 24.336L220.5 23.6562ZM218.297 29L217.304 28.8785L217.167 30H218.297V29ZM231 29V30H232V29H231ZM231 28.6719H232V28.6435L231.998 28.6152L231 28.6719ZM229.219 23.5625L228.465 24.2196L228.469 24.2244L229.219 23.5625ZM225.445 43.4688C222.249 43.4688 219.724 42.4337 217.777 40.4018L216.333 41.7857C218.698 44.2538 221.766 45.4688 225.445 45.4688V43.4688ZM217.779 40.4043C215.835 38.3621 214.82 35.6049 214.82 32.0234H212.82C212.82 36.0045 213.961 39.2942 216.33 41.7832L217.779 40.4043ZM214.82 32.0234V31.2266H212.82V32.0234H214.82ZM214.82 31.2266C214.82 28.8392 215.272 26.7496 216.15 24.9357L214.35 24.0643C213.322 26.1879 212.82 28.5827 212.82 31.2266H214.82ZM216.149 24.9387C217.044 23.1046 218.27 21.7022 219.824 20.6996L218.739 19.0192C216.855 20.2353 215.393 21.9266 214.351 24.0613L216.149 24.9387ZM219.825 20.6983C221.402 19.6756 223.089 19.1719 224.906 19.1719V17.1719C222.692 17.1719 220.629 17.7932 218.737 19.0204L219.825 20.6983ZM224.906 19.1719C227.961 19.1719 230.222 20.1651 231.829 22.0737L233.359 20.7857C231.309 18.3505 228.445 17.1719 224.906 17.1719V19.1719ZM231.829 22.0737C233.452 24.002 234.336 26.848 234.336 30.7578H236.336C236.336 26.5739 235.392 23.2011 233.359 20.7857L231.829 22.0737ZM234.336 30.7578V32.5625H236.336V30.7578H234.336ZM235.336 31.5625H218.156V33.5625H235.336V31.5625ZM217.157 32.5875C217.224 35.2753 218.012 37.5431 219.592 39.3014L221.08 37.9643C219.879 36.6287 219.214 34.8497 219.156 32.5375L217.157 32.5875ZM219.599 39.3092C221.203 41.0552 223.255 41.9297 225.68 41.9297V39.9297C223.792 39.9297 222.282 39.2729 221.072 37.9564L219.599 39.3092ZM225.68 41.9297C227.346 41.9297 228.828 41.589 230.077 40.8541L229.063 39.1303C228.188 39.6454 227.075 39.9297 225.68 39.9297V41.9297ZM230.077 40.8541C231.256 40.1609 232.28 39.2455 233.151 38.1193L231.568 36.8964C230.845 37.8326 230.01 38.5735 229.063 39.1303L230.077 40.8541ZM231.745 38.2968L234.393 40.3593L235.622 38.7813L232.974 36.7188L231.745 38.2968ZM234.17 39.0249C232.248 41.9777 229.394 43.4688 225.445 43.4688V45.4688C229.997 45.4688 233.517 43.6942 235.846 40.1157L234.17 39.0249ZM224.906 20.7344C222.878 20.7344 221.144 21.4906 219.767 22.9765L221.233 24.336C222.231 23.2594 223.434 22.7344 224.906 22.7344V20.7344ZM219.771 22.972C218.396 24.4368 217.603 26.4404 217.304 28.8785L219.289 29.1215C219.553 26.9659 220.229 25.407 221.229 24.3405L219.771 22.972ZM218.297 30H231V28H218.297V30ZM232 29V28.6719H230V29H232ZM231.998 28.6152C231.865 26.2711 231.226 24.325 229.968 22.9006L228.469 24.2244C229.336 25.2063 229.885 26.6664 230.002 28.7285L231.998 28.6152ZM229.973 22.9054C228.696 21.441 226.969 20.7344 224.906 20.7344V22.7344C226.469 22.7344 227.617 23.2465 228.465 24.2196L229.973 22.9054ZM252.633 22.5312L252.468 23.5176L253.633 23.7117V22.5312H252.633ZM244.711 26L243.789 25.6133L243.711 25.7988V26H244.711ZM244.711 44V45H245.711V44H244.711ZM240.375 44H239.375V45H240.375V44ZM240.375 18.6406V17.6406H239.375V18.6406H240.375ZM244.594 18.6406L245.593 18.6166L245.57 17.6406H244.594V18.6406ZM244.664 21.5703L243.664 21.5943L243.744 24.9174L245.511 22.1019L244.664 21.5703ZM252.633 18.5H253.633V17.882L253.08 17.6056L252.633 18.5ZM252.797 21.5449C252.079 21.4252 251.313 21.3672 250.5 21.3672V23.3672C251.219 23.3672 251.874 23.4186 252.468 23.5176L252.797 21.5449ZM250.5 21.3672C248.937 21.3672 247.548 21.7008 246.388 22.4284C245.223 23.1595 244.364 24.2423 243.789 25.6133L245.633 26.3867C246.074 25.3358 246.687 24.6023 247.451 24.1224C248.222 23.639 249.22 23.3672 250.5 23.3672V21.3672ZM243.711 26V44H245.711V26H243.711ZM244.711 43H240.375V45H244.711V43ZM241.375 44V18.6406H239.375V44H241.375ZM240.375 19.6406H244.594V17.6406H240.375V19.6406ZM243.594 18.6646L243.664 21.5943L245.664 21.5463L245.593 18.6166L243.594 18.6646ZM245.511 22.1019C246.756 20.1188 248.456 19.1719 250.711 19.1719V17.1719C247.747 17.1719 245.416 18.4905 243.817 21.0387L245.511 22.1019ZM250.711 19.1719C251.497 19.1719 251.954 19.2784 252.186 19.3944L253.08 17.6056C252.437 17.2841 251.613 17.1719 250.711 17.1719V19.1719ZM251.633 18.5V22.5312H253.633V18.5H251.633Z" fill="black"/>
<path d="M143.062 33.1719C142.641 36.7812 141.305 39.5703 139.055 41.5391C136.82 43.4922 133.844 44.4688 130.125 44.4688C126.094 44.4688 122.859 43.0234 120.422 40.1328C118 37.2422 116.789 33.375 116.789 28.5312V25.25C116.789 22.0781 117.352 19.2891 118.477 16.8828C119.617 14.4766 121.227 12.6328 123.305 11.3516C125.383 10.0547 127.789 9.40625 130.523 9.40625C134.148 9.40625 137.055 10.4219 139.242 12.4531C141.43 14.4688 142.703 17.2656 143.062 20.8438H138.539C138.148 18.125 137.297 16.1562 135.984 14.9375C134.688 13.7188 132.867 13.1094 130.523 13.1094C127.648 13.1094 125.391 14.1719 123.75 16.2969C122.125 18.4219 121.312 21.4453 121.312 25.3672V28.6719C121.312 32.375 122.086 35.3203 123.633 37.5078C125.18 39.6953 127.344 40.7891 130.125 40.7891C132.625 40.7891 134.539 40.2266 135.867 39.1016C137.211 37.9609 138.102 35.9844 138.539 33.1719H143.062Z" fill="#FF8C05"/>
</svg>
